#!OML:ASF H:\MichaelJackson\Top Level 1\Subject 1\Session 1\male.ASF
:FULLY-SPECIFIED
:DEGREES
815
root 1.96192 16.713 22.541 5.00468 1.83111 353.518
lowerback 0.914862 5.90682 5.67842
upperback -0.0805568 7.93448 -0.323897
thorax 0.21885 3.97185 -3.47822
lowerneck -5.96449 -1.68415 2.87207
upperneck -0.924203 -2.43981 1.36072
head 0.681354 -1.20397 -0.11296
rclavicle 8.26944e-014 1.07344e-014
rhumerus -30.9049 45.5457 -111.566
rradius 67.6532
rwrist -0.988598
rhand -11.2537 -25.3793
rfingers 7.12502
rthumb 14.7761 -774.833
lclavicle 8.26944e-014 1.07344e-014
lhumerus -53.0701 -7.31291 91.7935
lradius 53.9866
lwrist 19.7939
lhand -11.2722 5.17551
lfingers 7.12502
lthumb 14.7583 34.6301
rfemur 0.5095 4.78051 21.9255
rtibia 22.8266
rfoot -22.2666 -10.1812
rtoes -21.9747
lfemur -39.698 0.559225 -0.281321
ltibia 21.8073
lfoot -9.19832 6.66918
ltoes 14.4502
816
root 1.99609 16.6914 22.7045 4.99046 0.522932 353.241
lowerback 0.726889 6.09859 5.79756
upperback -0.118402 8.18031 -0.248129
thorax 0.314842 4.09638 -3.43936
lowerneck -5.87698 -1.63387 2.95888
upperneck -0.74457 -2.3798 1.35663
head 0.722249 -1.17205 -0.12763
rclavicle -1.2752e-013 1.59028e-015
rhumerus -30.6334 45.5033 -111.043
rradius 67.5114
rwrist -1.28071
rhand -10.4296 -24.8636
rfingers 7.12502
rthumb 15.5699 -774.257
lclavicle -1.2752e-013 1.59028e-015
lhumerus -53.0438 -7.13808 91.5839
lradius 53.479
lwrist 19.6028
lhand -10.5341 5.26832
lfingers 7.12502
lthumb 15.4693 34.6694
rfemur 1.53552 5.19017 22.0745
rtibia 21.9221
rfoot -22.0719 -10.5729
rtoes -22.5638
lfemur -38.9279 0.127901 0.811068
ltibia 20.1612
lfoot -8.78773 8.56833
ltoes 14.9281
817
root 2.03115 16.6664 22.8712 4.93696 -0.75725 352.989
lowerback 0.548969 6.29273 5.88725
upperback -0.159273 8.42926 -0.177758
thorax 0.39921 4.22205 -3.38998
lowerneck -5.78068 -1.58872 3.04583
upperneck -0.537971 -2.32681 1.3565
head 0.770183 -1.14307 -0.141404
rclavicle -1.31496e-013 -7.95139e-016
rhumerus -30.3656 45.4422 -110.478
rradius 67.3777
rwrist -1.57836
rhand -9.5887 -24.3245
rfingers 7.12502
rthumb 16.3797 -773.653
lclavicle -1.31496e-013 -7.95139e-016
lhumerus -53.0599 -6.93873 91.3475
lradius 53.0275
lwrist 19.3926
lhand -9.73271 5.33909
lfingers 7.12502
lthumb 16.241 34.6788
rfemur 2.60588 5.58915 22.1904
rtibia 21.0611
rfoot -21.8814 -11.0103
rtoes -23.2307
lfemur -38.1174 -0.322086 1.83581
ltibia 18.7988
lfoot -8.42232 10.4617
ltoes 15.6653
818
root 2.06727 16.6383 23.0411 4.8511 -2.00542 352.768
lowerback 0.375962 6.48598 5.94256
upperback -0.204655 8.6769 -0.112993
thorax 0.471843 4.3466 -3.32749
lowerneck -5.68249 -1.54493 3.13487
upperneck -0.30466 -2.27615 1.35668
head 0.826248 -1.11466 -0.155687
rclavicle -3.44394e-014 -4.37326e-015
rhumerus -30.0996 45.3653 -109.864
rradius 67.2489
rwrist -1.88312
rhand -8.74889 -23.7685
rfingers 7.12502
rthumb 17.1881 -773.028
lclavicle -3.44394e-014 -4.37326e-015
lhumerus -53.1216 -6.71062 91.0862
lradius 52.638
lwrist 19.1398
lhand -8.88934 5.39768
lfingers 7.12502
lthumb 17.053 34.6692
rfemur 3.69792 5.96022 22.2596
rtibia 20.2595
rfoot -21.7007 -11.4627
rtoes -24.0004
lfemur -37.3045 -0.695393 2.71453
ltibia 17.7694
lfoot -8.11646 12.2288
ltoes 16.6544
819
root 2.10478 16.6075 23.2137 4.74067 -3.21568 352.58
lowerback 0.201893 6.67518 5.96431
upperback -0.25603 8.91887 -0.053324
thorax 0.533788 4.46784 -3.25161
lowerneck -5.58852 -1.49897 3.22795
upperneck -0.0463017 -2.2234 1.35206
head 0.890977 -1.08467 -0.172316
rclavicle -2.55438e-014 -5.96354e-015
rhumerus -29.8346 45.2733 -109.197
rradius 67.122
rwrist -2.18774
rhand -7.9339 -23.2014
rfingers 7.12502
rthumb 17.9724 -772.391
lclavicle -2.55438e-014 -5.96354e-015
lhumerus -53.2304 -6.44967 90.8021
lradius 52.3132
lwrist 18.8285
lhand -8.02489 5.44958
lfingers 7.12502
lthumb 17.8849 34.6472
rfemur 4.78459 6.27169 22.2694
rtibia 19.5372
rfoot -21.5329 -11.8998
rtoes -24.9018
lfemur -36.5259 -0.889882 3.37451
ltibia 17.1112
lfoot -7.87269 13.7532
ltoes 17.8162
820
root 2.14416 16.5748 23.3889 4.61266 -4.37788 352.424
lowerback 0.0205861 6.85666 5.95921
upperback -0.314538 9.1501 0.00260752
thorax 0.58729 4.58326 -3.16423
lowerneck -5.50381 -1.44827 3.32656
upperneck 0.235501 -2.16531 1.33786
head 0.964776 -1.05151 -0.192986
rclavicle -2.48481e-016 0
rhumerus -29.5725 45.1631 -108.471
rradius 66.9941
rwrist -2.47723
rhand -7.17223 -22.6272
rfingers 7.12502
rthumb 18.7052 -771.748
lclavicle -2.48481e-016 0
lhumerus -53.3862 -6.15374 90.498
lradius 52.0513
lwrist 18.4542
lhand -7.16163 5.49493
lfingers 7.12502
lthumb 18.7154 34.6146
rfemur 5.83887 6.48206 22.2095
rtibia 18.917
rfoot -21.3786 -12.2951
rtoes -25.9589
lfemur -35.8129 -0.829675 3.76948
ltibia 16.8436
lfoot -7.6782 14.9523
ltoes 19.0378
821
root 2.186 16.5406 23.5666 4.4721 -5.47753 352.293
lowerback -0.172572 7.02642 5.93941
upperback -0.381328 9.3651 0.0567512
thorax 0.634559 4.69018 -3.06969
lowerneck -5.43036 -1.39198 3.43192
upperneck 0.538849 -2.10077 1.31002
head 1.04746 -1.01469 -0.219131
rclavicle 7.95139e-016 -3.97569e-016
rhumerus -29.3198 45.0234 -107.682
rradius 66.8638
rwrist -2.73019
rhand -6.49092 -22.0473
rfingers 7.12502
rthumb 19.3604 -771.104
lclavicle 7.95139e-016 -3.97569e-016
lhumerus -53.5888 -5.82466 90.1773
lradius 51.848
lwrist 18.0267
lhand -6.3234 5.53472
lfingers 7.12502
lthumb 19.5214 34.5747
rfemur 6.83668 6.54766 22.0726
rtibia 18.4231
rfoot -21.2343 -12.628
rtoes -27.1883
lfemur -35.1876 -0.497503 3.8962
ltibia 16.9611
lfoot -7.50492 15.8019
ltoes 20.1964
822
root 2.23087 16.5054 23.747 4.31888 -6.49253 352.183
lowerback -0.379066 7.17889 5.91771
upperback -0.456229 9.55635 0.111717
thorax 0.677428 4.78491 -2.97235
lowerneck -5.36827 -1.33128 3.54424
upperneck 0.862475 -2.03125 1.26713
head 1.13874 -0.974998 -0.251271
rclavicle 9.5516e-014 3.1408e-014
rhumerus -29.0866 44.8357 -106.829
rradius 66.7304
rwrist -2.92296
rhand -5.91549 -21.4607
rfingers 7.12502
rthumb 19.9136 -770.46
lclavicle 9.5516e-014 3.1408e-014
lhumerus -53.8365 -5.46827 89.8449
lradius 51.696
lwrist 17.569
lhand -5.53516 5.5682
lfingers 7.12502
lthumb 20.2792 34.5295
rfemur 7.76309 6.43274 21.8562
rtibia 18.0799
rfoot -21.0914 -12.8887
rtoes -28.5946
lfemur -34.6601 0.0549658 3.79148
ltibia 17.4312
lfoot -7.3116 16.3316
ltoes 21.1722
823
root 2.27931 16.4699 23.9303 4.14879 -7.39572 352.088
lowerback -0.597166 7.3079 5.90526
upperback -0.538385 9.71564 0.169868
thorax 0.716543 4.86338 -2.87638
lowerneck -5.31645 -1.26974 3.66311
upperneck 1.20624 -1.96141 1.21057
head 1.23849 -0.934749 -0.289039
rclavicle 7.59109e-014 1.59028e-015
rhumerus -28.8868 44.5742 -105.91
rradius 66.5936
rwrist -3.03309
rhand -5.46951 -20.8664
rfingers 7.12502
rthumb 20.3422 -769.821
lclavicle 7.59109e-014 1.59028e-015
lhumerus -54.1252 -5.09524 89.5072
lradius 51.5857
lwrist 17.1135
lhand -4.81885 5.59926
lfingers 7.12502
lthumb 20.9675 34.4859
rfemur 8.61063 6.11714 21.5606
rtibia 17.9111
rfoot -20.9365 -13.0751
rtoes -30.1695
lfemur -34.2285 0.720917 3.51828
ltibia 18.1969
lfoot -7.04896 16.6007
ltoes 21.8618
824
root 2.33177 16.4349 24.117 3.95359 -8.15673 352.007
lowerback -0.82237 7.40681 5.90671
upperback -0.625761 9.83425 0.2333
thorax 0.751301 4.92127 -2.78321
lowerneck -5.27306 -1.21295 3.78641
upperneck 1.57021 -1.8985 1.1441
head 1.3465 -0.897513 -0.331118
rclavicle 7.62836e-015 4.77083e-015
rhumerus -28.7358 44.21 -104.924
rradius 66.4526
rwrist -3.04411
rhand -5.17532 -20.2656
rfingers 7.12502
rthumb 20.625 -769.19
lclavicle 7.62836e-015 4.77083e-015
lhumerus -54.4471 -4.71827 89.1715
lradius 51.5053
lwrist 16.695
lhand -4.19279 5.63226
lfingers 7.12502
lthumb 21.5688 34.4512
rfemur 9.37733 5.60026 21.1879
rtibia 17.9428
rfoot -20.7511 -13.1904
rtoes -31.8914
lfemur -33.8801 1.36711 3.14472
ltibia 19.1845
lfoot -6.66511 16.6619
ltoes 22.1705
825
root 2.38853 16.4011 24.3071 3.72258 -8.74639 351.943
lowerback -1.04838 7.46998 5.9188
upperback -0.715597 9.90494 0.302625
thorax 0.779972 4.95497 -2.69185
lowerneck -5.23629 -1.16836 3.91117
upperneck 1.95435 -1.8523 1.07376
head 1.46245 -0.868084 -0.375417
rclavicle -7.12146e-014 8.74653e-015
rhumerus -28.6487 43.7153 -103.87
rradius 66.3039
rwrist -2.94742
rhand -5.06198 -19.6655
rfingers 7.12502
rthumb 20.7339 -768.578
lclavicle -7.12146e-014 8.74653e-015
lhumerus -54.7895 -4.35181 88.845
lradius 51.4411
lwrist 16.3441
lhand -3.66619 5.67625
lfingers 7.12502
lthumb 22.0745 34.4363
rfemur 10.0605 4.89939 20.7384
rtibia 18.2072
rfoot -20.514 -13.237
rtoes -33.7305
lfemur -33.5962 1.86564 2.72648
ltibia 20.3131
lfoot -6.11426 16.5339
ltoes 22.0036
826
root 2.44972 16.3694 24.5008 3.44436 -9.1401 351.907
lowerback -1.26786 7.49313 5.92966
upperback -0.804322 9.92249 0.377403
thorax 0.800038 4.96192 -2.59794
lowerneck -5.20557 -1.1441 4.03194
upperneck 2.35839 -1.83352 1.00707
head 1.58616 -0.85167 -0.419013
rclavicle -4.50247e-014 1.11319e-014
rhumerus -28.638 43.0695 -102.744
rradius 66.1409
rwrist -2.74211
rhand -5.16246 -19.0793
rfingers 7.12502
rthumb 20.6373 -768.002
lclavicle -4.50247e-014 1.11319e-014
lhumerus -55.1354 -4.00842 88.5343
lradius 51.3794
lwrist 16.0799
lhand -3.23692 5.74169
lfingers 7.12502
lthumb 22.4866 34.4525
rfemur 10.6502 4.04246 20.2083
rtibia 18.7476
rfoot -20.2029 -13.2101
rtoes -35.6467
lfemur -33.3569 2.1175 2.29753
ltibia 21.5043
lfoot -5.36662 16.1899
ltoes 21.2653
827
root 2.5153 16.3407 24.6977 3.11017 -9.32426 351.909
lowerback -1.47438 7.47516 5.92155
upperback -0.887954 9.88605 0.456327
thorax 0.809509 4.94175 -2.4945
lowerneck -5.18222 -1.14808 4.14187
upperneck 2.78118 -1.85259 0.950849
head 1.71741 -0.853398 -0.458979
rclavicle 2.5929e-014 4.77083e-015
rhumerus -28.7117 42.2642 -101.543
rradius 65.9528
rwrist -2.43517
rhand -5.51961 -18.5285
rfingers 7.12502
rthumb 20.2941 -767.488
lclavicle 2.5929e-014 4.77083e-015
lhumerus -55.4635 -3.6969 88.2438
lradius 51.307
lwrist 15.9069
lhand -2.89425 5.83694
lfingers 7.12502
lthumb 22.8155 34.5076
rfemur 11.1228 3.06066 19.589
rtibia 19.6209
rfoot -19.795 -13.0908
rtoes -37.5882
lfemur -33.1454 2.06826 1.86987
ltibia 22.6905
lfoot -4.42538 15.5722
ltoes 19.8784
828
root 2.58511 16.3157 24.8973 2.71561 -9.29675 351.962
lowerback -1.66283 7.41794 5.87401
upperback -0.962916 9.7989 0.537091
thorax 0.80693 4.89622 -2.37364
lowerneck -5.16837 -1.18692 4.2333
upperneck 3.22078 -1.91827 0.910482
head 1.85592 -0.877583 -0.492663
rclavicle -7.40131e-014 6.36111e-015
rhumerus -28.8726 41.3057 -100.262
rradius 65.7257
rwrist -2.03791
rhand -6.18113 -18.041
rfingers 7.12502
rthumb 19.6582 -767.067
lclavicle -7.40131e-014 6.36111e-015
lhumerus -55.7525 -3.42229 87.9756
lradius 51.2139
lwrist 15.8144
lhand -2.62381 5.96185
lfingers 7.12502
lthumb 23.075 34.6002
rfemur 11.4412 1.9812 18.8674
rtibia 20.8925
rfoot -19.2627 -12.8443
rtoes -39.4914
lfemur -32.9495 1.71383 1.43501
ltibia 23.8213
lfoot -3.34667 14.6138
ltoes 17.8404
